<?xml version="1.0" standalone="no"?>
<!DOCTYPE svg PUBLIC "-//W3C//DTD SVG 20010904//EN"
 "http://www.w3.org/TR/2001/REC-SVG-20010904/DTD/svg10.dtd">
<svg version="1.0" xmlns="http://www.w3.org/2000/svg"
 width="1280.000000pt" height="1063.000000pt" viewBox="0 0 1280.000000 1063.000000"
 preserveAspectRatio="xMidYMid meet">
<metadata>
Created by potrace 1.15, written by Peter Selinger 2001-2017
</metadata>
<g transform="translate(0.000000,1063.000000) scale(0.100000,-0.100000)"
fill="#ffffff" stroke="none">
<path d="M63 10623 c-20 -3 -38 -13 -48 -29 -15 -23 -15 -70 -5 -567 6 -298
15 -762 20 -1032 10 -492 22 -1087 40 -2005 23 -1150 30 -1514 39 -2030 6
-300 13 -612 16 -695 l6 -150 72 -73 c82 -83 73 -81 281 -62 61 5 235 19 386
30 151 11 329 25 395 30 127 10 304 23 525 40 512 38 669 50 795 60 147 11
345 27 525 40 271 20 560 42 802 61 87 7 161 10 164 6 4 -3 3 -213 -1 -465
l-7 -459 -317 -27 c-759 -67 -799 -71 -821 -91 -17 -15 -20 -31 -20 -90 l0
-73 476 -393 477 -394 46 1 c25 1 96 6 156 12 811 83 1294 132 1395 142 52 5
185 19 295 30 110 11 243 25 295 30 52 5 230 23 395 40 165 17 433 44 595 60
354 35 359 36 388 63 19 18 22 30 22 91 l-1 71 -42 31 c-23 17 -203 120 -399
229 -196 110 -356 200 -355 201 3 2 170 -40 636 -162 820 -215 1410 -400 1874
-590 113 -46 449 -205 444 -210 -2 -3 -244 -30 -927 -104 -206 -22 -494 -54
-640 -70 -146 -16 -393 -43 -550 -60 -157 -17 -364 -39 -460 -50 -168 -19
-409 -45 -1015 -111 -154 -16 -399 -43 -545 -59 -146 -16 -391 -43 -545 -60
-573 -62 -1025 -111 -1195 -130 -96 -10 -303 -33 -460 -50 -157 -17 -364 -39
-460 -50 -96 -11 -344 -38 -550 -60 -206 -22 -413 -44 -460 -50 -47 -5 -173
-19 -280 -30 -107 -11 -205 -25 -217 -30 -21 -9 -23 -16 -23 -100 l0 -90 456
-587 c343 -444 462 -590 482 -596 15 -4 77 0 137 8 61 8 218 28 350 45 132 17
346 44 475 61 129 16 341 43 470 60 129 16 303 38 385 49 83 11 256 33 385 49
129 17 341 44 470 60 129 17 343 44 475 61 132 17 308 39 390 50 83 11 257 33
388 50 130 16 344 44 475 60 130 17 343 44 472 61 129 16 303 38 385 49 156
20 434 56 905 116 151 19 343 43 425 54 315 40 548 70 778 100 130 16 344 44
475 60 130 17 324 42 430 55 105 14 279 36 385 50 105 13 299 38 430 55 130
16 344 44 475 60 130 17 325 42 432 56 107 13 277 35 378 48 101 13 187 27
192 32 4 5 10 49 12 99 l3 89 -953 443 -953 443 -92 -10 c-469 -50 -856 -92
-921 -100 -140 -18 -145 -17 -305 64 -570 288 -1240 507 -2699 881 l-442 114
-119 65 -118 66 -104 -10 -105 -10 -308 84 c-169 46 -311 88 -315 92 -6 8 6
674 12 681 4 4 204 21 507 43 605 45 835 63 1185 90 66 5 185 14 265 20 80 6
199 15 265 20 66 5 185 14 265 20 80 6 199 15 265 20 138 11 330 25 525 40
271 20 560 42 802 61 145 11 159 14 172 35 11 15 18 80 26 225 6 112 15 283
20 379 12 223 27 498 40 738 10 180 20 359 40 732 5 96 14 259 20 363 5 103
14 270 20 372 5 102 15 269 20 373 6 103 15 266 20 362 5 96 14 263 20 370 6
107 15 274 20 370 5 96 14 259 20 363 20 381 31 566 40 742 24 435 24 448 4
467 -17 15 -156 17 -1734 27 -2315 15 -4453 29 -6235 41 -1481 10 -1842 10
-1902 3z m5482 -7077 c88 -25 180 -50 205 -57 44 -12 39 -13 -135 -30 -99 -10
-199 -18 -222 -18 l-43 -1 0 81 c0 72 2 80 18 75 9 -3 89 -25 177 -50z"/>
</g>
</svg>
