<?xml version="1.0" standalone="no"?>
<!DOCTYPE svg PUBLIC "-//W3C//DTD SVG 20010904//EN"
 "http://www.w3.org/TR/2001/REC-SVG-20010904/DTD/svg10.dtd">
<svg version="1.0" xmlns="http://www.w3.org/2000/svg"
 width="1280.000000pt" height="1280.000000pt" viewBox="0 0 1280.000000 1280.000000"
 preserveAspectRatio="xMidYMid meet">
<metadata>
Created by potrace 1.15, written by Peter Selinger 2001-2017
</metadata>
<g transform="translate(0.000000,1280.000000) scale(0.100000,-0.100000)"
fill="#ffffff" stroke="none">
<path d="M5730 12500 c-11 -11 -20 -27 -20 -35 0 -13 -298 -15 -2625 -15
l-2625 0 0 -1784 0 -1785 43 -3 42 -3 3 -112 3 -113 -46 0 -45 0 0 -4005 0
-4005 75 0 75 0 0 -73 c0 -137 47 -224 144 -268 40 -18 130 -19 2599 -19 2826
0 2594 -5 2665 63 56 53 74 101 80 204 l5 93 68 0 69 0 0 4005 0 4005 -35 0
-35 0 0 115 0 115 35 0 35 0 0 1800 c0 1787 0 1800 -20 1820 -19 19 -33 20
-245 20 -212 0 -226 -1 -245 -20z"/>
<path d="M7319 12213 c-189 -173 -321 -302 -331 -323 -17 -33 -18 -125 -18
-1493 0 -1411 1 -1459 19 -1495 23 -46 46 -67 94 -87 32 -13 313 -15 2574 -15
2457 0 2539 1 2579 19 23 10 54 36 70 57 l29 37 3 1478 2 1477 -77 114 c-43
62 -139 203 -214 313 l-136 200 -2140 3 -2141 2 -313 -287z"/>
<path d="M7680 7561 l0 -469 -345 -473 -345 -473 0 -2928 0 -2928 2680 0 2680
0 0 2928 0 2929 -340 471 -340 472 0 470 0 470 -1995 0 -1995 0 0 -469z"/>
</g>
</svg>
